<svg xmlns="http://www.w3.org/2000/svg" xmlns:xlink="http://www.w3.org/1999/xlink" width="500" zoomAndPan="magnify" viewBox="0 0 375 374.999991" height="500" preserveAspectRatio="xMidYMid meet" version="1.0"><defs><clipPath id="id1"><path d="M 26.933594 1 L 347.933594 1 L 347.933594 375 L 26.933594 375 Z M 26.933594 1 " clip-rule="nonzero"/></clipPath></defs><g clip-path="url(#id1)"><path fill="#000000" d="M 258.617188 1.75 C 258.914062 1.898438 259.066406 1.898438 259.140625 2.046875 C 286.640625 29.558594 314.136719 56.996094 341.636719 84.503906 C 341.710938 84.578125 341.789062 84.804688 341.9375 84.953125 C 340.214844 85.929688 338.566406 86.902344 336.84375 87.953125 C 333.695312 89.828125 330.472656 91.625 327.324219 93.5 C 321.78125 96.722656 316.238281 99.945312 310.691406 103.167969 C 310.242188 103.394531 309.71875 103.621094 309.492188 104.21875 C 309.644531 104.820312 310.09375 105.117188 310.542969 105.492188 C 313.390625 108.34375 316.238281 111.191406 319.082031 114.039062 C 324.402344 119.359375 329.796875 124.757812 335.117188 130.082031 C 335.417969 130.378906 335.792969 130.753906 336.09375 131.128906 C 336.019531 131.730469 335.644531 132.179688 335.34375 132.628906 C 332.496094 137.125 329.648438 141.699219 326.875 146.195312 C 321.40625 154.890625 316.011719 163.585938 310.542969 172.28125 C 300.875 187.726562 291.285156 203.089844 281.617188 218.535156 C 272.328125 233.375 263.035156 248.21875 253.746094 263.058594 C 244.753906 277.527344 235.6875 291.996094 226.695312 306.460938 C 220.25 316.804688 213.730469 327.226562 207.289062 337.570312 C 201.445312 346.863281 195.675781 356.234375 189.828125 365.53125 C 189.378906 366.203125 188.929688 366.878906 188.480469 367.554688 C 187.957031 367.402344 188.105469 367.027344 188.105469 366.730469 C 188.105469 363.132812 188.105469 359.609375 188.105469 356.011719 C 188.105469 353.535156 188.105469 351.0625 188.105469 348.515625 C 188.105469 347.839844 188.179688 347.164062 188.480469 346.566406 C 190.355469 341.542969 192.152344 336.445312 194.027344 331.421875 C 195.75 326.625 197.546875 321.753906 199.269531 316.957031 C 201.292969 311.332031 203.316406 305.636719 205.265625 299.941406 C 207.0625 294.84375 208.785156 289.746094 210.511719 284.648438 C 212.382812 279.25 214.183594 273.855469 216.054688 268.457031 C 217.929688 262.835938 219.800781 257.289062 221.601562 251.664062 C 223.472656 245.894531 225.347656 240.121094 227.144531 234.351562 C 229.917969 225.578125 232.539062 216.734375 235.238281 207.890625 C 236.585938 203.464844 237.859375 198.96875 239.132812 194.472656 C 240.78125 188.472656 242.429688 182.476562 244.078125 176.480469 C 245.277344 172.058594 246.476562 167.710938 247.601562 163.289062 C 248.800781 158.492188 250 153.769531 251.121094 148.96875 C 252.171875 144.472656 253.296875 139.976562 254.269531 135.476562 C 255.46875 129.929688 256.667969 124.308594 257.714844 118.761719 C 258.765625 113.214844 259.8125 107.667969 260.714844 102.121094 C 261.386719 98.296875 261.914062 94.472656 262.363281 90.578125 C 262.960938 85.929688 263.5625 81.355469 264.085938 76.710938 C 264.609375 71.988281 264.984375 67.339844 265.210938 62.617188 C 265.433594 59.167969 265.507812 55.796875 265.582031 52.347656 C 265.582031 50.25 265.734375 48.074219 265.660156 45.976562 C 265.660156 42.902344 265.582031 39.753906 265.433594 36.679688 C 265.058594 31.132812 264.609375 25.511719 263.5625 20.039062 C 262.886719 16.367188 262.210938 12.691406 261.089844 9.171875 C 260.414062 6.921875 259.8125 4.671875 258.914062 2.5 C 258.765625 2.421875 258.691406 2.125 258.617188 1.75 Z M 186.980469 366.804688 C 186.980469 360.808594 186.980469 354.886719 186.980469 348.890625 C 186.980469 348.0625 186.757812 347.238281 186.53125 346.492188 C 183.535156 338.246094 180.539062 330.074219 177.617188 321.828125 C 174.542969 313.132812 171.398438 304.511719 168.398438 295.742188 C 165.027344 285.996094 161.730469 276.253906 158.433594 266.507812 C 156.785156 261.558594 155.136719 256.613281 153.5625 251.589844 C 150.867188 243.269531 148.242188 234.949219 145.621094 226.554688 C 142.097656 215.308594 138.726562 203.992188 135.503906 192.597656 C 133.933594 187.125 132.433594 181.652344 130.933594 176.105469 C 129.585938 171.160156 128.3125 166.210938 127.039062 161.265625 C 126.140625 157.742188 125.238281 154.21875 124.414062 150.695312 C 123.066406 145.074219 121.792969 139.375 120.519531 133.753906 C 119.769531 130.457031 119.09375 127.082031 118.421875 123.710938 C 117.523438 119.285156 116.699219 114.863281 115.875 110.441406 C 115.273438 107.367188 114.75 104.21875 114.300781 101.070312 C 113.550781 96.421875 112.875 91.777344 112.203125 87.128906 C 111.753906 83.980469 111.453125 80.832031 111.078125 77.683594 C 110.703125 73.785156 110.328125 69.8125 110.027344 65.914062 C 109.730469 61.941406 109.503906 57.96875 109.355469 53.996094 C 109.203125 48.597656 109.28125 43.203125 109.578125 37.804688 C 109.804688 33.683594 110.105469 29.558594 110.628906 25.4375 C 110.851562 23.5625 111.152344 21.761719 111.453125 19.890625 C 111.675781 18.390625 112.050781 16.964844 112.351562 15.464844 C 113.175781 11.117188 114.375 6.921875 115.949219 2.796875 C 116.023438 2.5 116.097656 2.199219 116.171875 1.898438 C 115.949219 1.898438 115.875 1.898438 115.796875 1.972656 C 88.597656 29.183594 61.324219 56.394531 34.125 83.679688 C 33.824219 83.980469 33.527344 84.355469 33.152344 84.730469 C 33.527344 84.953125 33.824219 85.179688 34.125 85.40625 C 39.820312 88.703125 45.515625 92 51.210938 95.300781 C 55.628906 97.847656 59.976562 100.394531 64.398438 102.945312 C 64.695312 103.09375 64.996094 103.320312 65.296875 103.542969 C 65.59375 103.769531 65.671875 104.21875 65.445312 104.519531 C 65.144531 104.894531 64.769531 105.195312 64.472656 105.492188 C 56.378906 113.589844 48.285156 121.683594 40.195312 129.78125 C 39.820312 130.15625 39.445312 130.605469 39.070312 130.980469 C 39.144531 131.203125 39.144531 131.355469 39.21875 131.503906 C 88.375 210.136719 137.453125 288.847656 186.609375 367.480469 C 186.683594 367.554688 186.757812 367.554688 187.058594 367.777344 C 186.980469 367.402344 186.980469 367.105469 186.980469 366.804688 Z M 81.40625 34.429688 C 81.179688 34.582031 81.03125 34.730469 80.804688 34.882812 C 79.234375 36.378906 77.660156 37.878906 76.085938 39.378906 C 70.914062 44.25 65.746094 49.125 60.574219 53.996094 C 55.179688 58.945312 49.859375 64.039062 44.464844 69.0625 C 38.769531 74.460938 33.074219 79.78125 27.382812 85.179688 C 27.230469 85.328125 27.082031 85.554688 26.933594 85.777344 C 27.457031 86.078125 27.832031 86.304688 28.207031 86.527344 C 33.226562 89.453125 38.320312 92.449219 43.339844 95.375 C 47.761719 97.921875 52.257812 100.472656 56.679688 103.09375 C 57.429688 103.542969 58.101562 103.917969 58.851562 104.371094 C 59.300781 104.667969 59.375 105.195312 59.078125 105.570312 C 58.777344 105.945312 58.402344 106.242188 58.101562 106.542969 C 50.460938 114.1875 42.890625 121.761719 35.25 129.40625 C 34.875 129.78125 34.5 130.230469 34.050781 130.605469 C 34.273438 130.980469 34.425781 131.28125 34.648438 131.578125 C 36 133.679688 37.273438 135.777344 38.621094 137.875 C 50.910156 157.589844 63.199219 177.230469 75.488281 196.945312 C 82.753906 208.5625 90.023438 220.183594 97.292969 231.875 C 107.03125 247.46875 116.773438 263.058594 126.515625 278.726562 C 134.757812 291.996094 143.074219 305.1875 151.316406 318.378906 C 160.683594 333.371094 170.046875 348.363281 179.414062 363.355469 C 181.664062 367.03125 183.984375 370.628906 186.234375 374.300781 C 186.382812 374.523438 186.457031 374.898438 186.980469 374.75 C 186.980469 373.777344 186.90625 372.726562 186.980469 371.675781 C 187.058594 370.851562 186.757812 370.175781 186.308594 369.503906 C 183.984375 365.828125 181.738281 362.230469 179.488281 358.558594 C 172.296875 347.015625 165.027344 335.472656 157.835938 323.851562 C 151.464844 313.582031 145.019531 303.386719 138.652344 293.117188 C 132.808594 283.75 126.964844 274.304688 121.042969 264.859375 C 112.203125 250.765625 103.433594 236.671875 94.59375 222.582031 C 88.675781 213.136719 82.753906 203.691406 76.910156 194.246094 C 68.292969 180.527344 59.75 166.734375 51.132812 153.019531 C 46.9375 146.273438 42.742188 139.601562 38.546875 132.855469 C 38.171875 132.253906 37.796875 131.65625 37.421875 130.90625 C 37.796875 130.457031 38.171875 130.082031 38.472656 129.707031 C 39.96875 128.132812 41.542969 126.632812 43.117188 125.058594 C 49.710938 118.460938 56.304688 111.867188 62.898438 105.269531 C 63.273438 104.894531 63.722656 104.59375 63.871094 104.070312 C 63.648438 103.917969 63.421875 103.695312 63.199219 103.621094 C 57.054688 100.023438 50.835938 96.421875 44.691406 92.824219 C 40.792969 90.578125 36.898438 88.328125 33 86.078125 C 31.128906 84.953125 31.128906 84.953125 32.703125 83.378906 C 39.445312 76.632812 46.265625 69.8125 53.007812 63.066406 C 62.148438 54.070312 71.367188 44.851562 80.507812 35.707031 C 80.882812 35.332031 81.257812 34.957031 81.554688 34.582031 C 81.554688 34.582031 81.480469 34.507812 81.40625 34.429688 Z M 296.230469 37.203125 C 296.453125 37.953125 297.128906 38.328125 297.652344 38.855469 C 312.566406 53.769531 327.476562 68.6875 342.386719 83.605469 C 342.6875 83.90625 343.0625 84.28125 343.359375 84.65625 C 343.585938 84.953125 343.585938 85.328125 343.210938 85.628906 C 342.910156 85.855469 342.613281 86.003906 342.3125 86.230469 C 339.988281 87.578125 337.667969 88.925781 335.34375 90.277344 C 330.773438 92.976562 326.128906 95.675781 321.554688 98.371094 C 318.410156 100.246094 315.1875 102.046875 312.039062 103.917969 C 311.742188 104.070312 311.367188 104.21875 311.367188 104.742188 C 311.664062 105.117188 312.039062 105.492188 312.414062 105.792969 C 320.507812 113.890625 328.601562 121.984375 336.691406 130.082031 C 337.742188 131.128906 337.742188 131.203125 336.992188 132.480469 C 336.917969 132.628906 336.84375 132.777344 336.765625 132.855469 C 331.746094 140.875 326.726562 148.820312 321.78125 156.839844 C 314.0625 169.132812 306.421875 181.429688 298.703125 193.722656 C 290.460938 206.839844 282.292969 219.957031 274.050781 233.152344 C 266.558594 245.144531 259.066406 257.136719 251.648438 269.132812 C 242.65625 283.523438 233.664062 297.839844 224.746094 312.234375 C 215.082031 327.675781 205.488281 343.042969 195.824219 358.484375 C 193.5 362.230469 191.179688 365.980469 188.855469 369.652344 C 188.480469 370.328125 188.257812 370.925781 188.257812 371.675781 C 188.332031 372.578125 188.257812 373.476562 188.257812 374.300781 C 188.257812 374.449219 188.332031 374.675781 188.40625 374.824219 C 188.554688 374.75 188.628906 374.75 188.628906 374.75 C 188.707031 374.75 188.707031 374.675781 188.78125 374.675781 C 188.855469 374.601562 188.929688 374.523438 189.003906 374.449219 C 239.285156 293.492188 289.785156 212.6875 340.289062 131.804688 C 340.515625 131.503906 340.664062 131.203125 340.8125 130.832031 C 340.8125 130.753906 340.886719 130.753906 340.886719 130.679688 C 340.886719 130.605469 340.886719 130.605469 340.886719 130.457031 C 340.589844 130.15625 340.214844 129.78125 339.839844 129.40625 C 335.941406 125.507812 332.046875 121.609375 328.148438 117.710938 C 324.253906 113.8125 320.359375 109.917969 316.535156 106.019531 C 316.160156 105.644531 315.710938 105.417969 315.636719 104.820312 C 315.863281 104.144531 316.460938 103.996094 316.984375 103.695312 C 323.355469 99.945312 329.722656 96.273438 336.019531 92.601562 C 339.765625 90.425781 343.4375 88.328125 347.183594 86.152344 C 347.480469 86.003906 347.933594 85.929688 347.933594 85.40625 C 347.855469 85.328125 347.78125 85.179688 347.632812 85.03125 C 342.613281 80.308594 337.515625 75.507812 332.496094 70.789062 C 326.652344 65.316406 320.808594 59.769531 314.960938 54.296875 C 309.042969 48.675781 303.046875 43.050781 297.128906 37.429688 C 296.828125 37.355469 296.53125 37.28125 296.230469 37.203125 Z M 296.230469 37.203125 " fill-opacity="1" fill-rule="nonzero"/></g><path fill="#662d91" d="M 176.792969 17.414062 C 176.792969 21.539062 176.792969 25.734375 176.792969 29.933594 C 175.292969 30.984375 173.871094 32.03125 172.371094 33.007812 C 168.398438 35.78125 164.351562 38.554688 160.15625 40.953125 C 156.785156 42.902344 153.265625 44.25 149.441406 45 C 145.921875 45.75 142.324219 46.199219 138.652344 46.5 C 136.777344 46.648438 134.832031 46.875 132.957031 47.023438 C 132.582031 47.023438 132.132812 47.023438 131.609375 47.023438 C 131.382812 46.5 131.234375 45.976562 131.007812 45.527344 C 129.660156 42.675781 128.761719 39.605469 128.011719 36.605469 C 127.261719 33.683594 126.886719 30.683594 126.664062 27.683594 C 126.4375 25.0625 126.589844 22.4375 126.738281 19.738281 C 126.886719 17.566406 127.261719 15.390625 127.636719 13.292969 C 128.386719 9.46875 129.4375 5.722656 130.933594 2.125 C 131.160156 1.523438 131.460938 0.847656 131.683594 0.175781 C 132.058594 0.175781 132.359375 0.101562 132.734375 0.101562 C 134.605469 0.25 136.554688 0.398438 138.425781 0.550781 C 140.527344 0.773438 142.625 1 144.722656 1.300781 C 147.945312 1.75 151.164062 2.347656 154.238281 3.472656 C 156.5625 4.296875 158.734375 5.347656 160.757812 6.621094 C 164.054688 8.71875 167.351562 10.894531 170.648438 13.066406 C 172.445312 14.265625 174.167969 15.464844 175.894531 16.664062 C 176.191406 16.890625 176.492188 17.117188 176.792969 17.414062 Z M 194.773438 17.789062 C 194.773438 21.539062 194.773438 25.285156 194.773438 28.960938 C 194.773438 29.632812 195 30.007812 195.523438 30.382812 C 200.320312 33.683594 205.039062 37.054688 209.984375 40.054688 C 211.859375 41.179688 213.808594 42.300781 215.90625 43.125 C 219.652344 44.625 223.546875 45.375 227.519531 45.902344 C 229.46875 46.125 231.414062 46.351562 233.363281 46.574219 C 235.460938 46.800781 237.558594 46.949219 239.734375 47.101562 C 239.808594 47.101562 239.882812 47.023438 240.109375 46.949219 C 240.78125 45.300781 241.605469 43.5 242.207031 41.703125 C 243.105469 38.929688 243.929688 36.15625 244.378906 33.308594 C 244.527344 32.109375 244.902344 30.984375 244.902344 29.785156 C 244.976562 27.308594 245.277344 24.835938 245.054688 22.363281 C 244.902344 20.414062 244.976562 18.464844 244.601562 16.515625 C 244.304688 15.015625 244.152344 13.519531 243.855469 12.09375 C 242.953125 8.34375 241.832031 4.597656 240.332031 1 C 240.183594 0.699219 240.03125 0.476562 239.882812 0.25 C 236.511719 0.25 233.214844 0.773438 229.917969 1.074219 C 228.269531 1.222656 226.621094 1.523438 224.972656 1.824219 C 221.972656 2.273438 219.128906 3.023438 216.28125 4.074219 C 213.730469 5.046875 211.335938 6.398438 209.011719 7.894531 C 205.339844 10.292969 201.742188 12.691406 198.148438 15.167969 C 197.023438 15.917969 195.972656 16.742188 194.851562 17.492188 C 194.773438 17.566406 194.773438 17.714844 194.773438 17.789062 Z M 180.761719 18.316406 C 180.613281 18.316406 180.464844 18.464844 180.386719 18.539062 C 180.386719 18.691406 180.3125 18.765625 180.3125 18.914062 C 180.3125 22.136719 180.3125 25.4375 180.3125 28.660156 C 180.3125 28.882812 180.386719 29.035156 180.464844 29.183594 C 180.6875 29.257812 180.839844 29.335938 180.988281 29.335938 C 184.210938 29.335938 187.433594 29.335938 190.578125 29.335938 C 190.804688 29.335938 191.027344 29.183594 191.253906 29.183594 C 191.402344 27.609375 191.402344 19.738281 191.179688 18.539062 C 190.203125 18.238281 181.738281 18.164062 180.761719 18.316406 Z M 188.257812 262.984375 C 191.179688 262.910156 193.5 260.734375 193.5 257.585938 C 193.5 254.515625 191.328125 252.339844 188.257812 252.191406 C 185.332031 252.039062 182.488281 254.664062 182.710938 257.585938 C 182.5625 260.4375 185.035156 263.132812 188.257812 262.984375 Z M 188.179688 109.839844 C 191.027344 109.765625 193.425781 107.816406 193.5 104.519531 C 193.574219 101.445312 191.253906 99.195312 188.332031 99.046875 C 184.882812 98.898438 182.488281 101.894531 182.785156 104.371094 C 182.5625 107.292969 184.960938 109.917969 188.179688 109.839844 Z M 193.5 156.242188 C 193.5 153.167969 191.476562 150.996094 188.40625 150.769531 C 185.035156 150.542969 182.859375 153.167969 182.710938 155.640625 C 182.410156 159.238281 185.257812 161.5625 187.882812 161.5625 C 190.878906 161.714844 193.5 159.539062 193.5 156.242188 Z M 188.105469 213.511719 C 191.179688 213.4375 193.5 211.261719 193.5 208.039062 C 193.5 204.890625 191.101562 202.792969 188.179688 202.640625 C 185.257812 202.566406 182.5625 205.117188 182.710938 207.964844 C 182.488281 210.738281 184.882812 213.585938 188.105469 213.511719 Z M 188.105469 213.511719 " fill-opacity="1" fill-rule="nonzero"/><path fill="#000000" d="M 296.230469 37.203125 C 295.554688 36.980469 295.179688 36.378906 294.882812 35.78125 C 295.480469 36.082031 296.003906 36.457031 296.230469 37.203125 C 296.304688 37.128906 296.230469 37.203125 296.230469 37.203125 Z M 296.230469 37.203125 " fill-opacity="1" fill-rule="nonzero"/></svg>